<svg width="293" height="266" viewBox="0 0 293 266" fill="none" xmlns="http://www.w3.org/2000/svg">
<g clip-path="url(#clip0_237_778)">
<path d="M252.508 24.4589L7 95.6573L13.5028 117.873L259.011 46.6741L252.508 24.4589Z" fill="#3F3D56"/>
<path d="M36.3323 197.7L0.14631 74.0799C-0.121963 73.1634 -0.0134546 72.1783 0.447949 71.3414C0.909352 70.5045 1.68586 69.8844 2.60665 69.6173L242.163 0.144755C243.084 -0.121374 244.073 -0.013004 244.914 0.44609C245.754 0.905184 246.378 1.67749 246.647 2.59348L278.705 112.112L277.713 112.4L245.655 2.88121C245.462 2.2272 245.017 1.67587 244.417 1.34799C243.816 1.02012 243.11 0.942434 242.452 1.13197L2.89566 70.6045C2.23795 70.7953 1.68331 71.2383 1.35373 71.8361C1.02416 72.4339 0.946653 73.1375 1.13827 73.7922L37.3243 197.412L36.3323 197.7Z" fill="#3F3D56"/>
<path d="M225.683 112.621C224.956 112.62 224.249 112.385 223.667 111.951C223.086 111.517 222.661 110.907 222.457 110.213L216.388 89.4786C216.14 88.6276 216.241 87.7134 216.669 86.9365C217.098 86.1597 217.818 85.5837 218.672 85.3348L239.504 79.2938C240.359 79.0469 241.277 79.1476 242.058 79.574C242.838 80.0004 243.417 80.7175 243.667 81.568L249.736 102.302C249.984 103.153 249.883 104.067 249.454 104.844C249.026 105.621 248.306 106.197 247.451 106.446L226.62 112.487C226.316 112.576 226 112.621 225.683 112.621Z" fill="#0B0C0C"/>
<path d="M35.773 74.4621C35.7107 74.249 35.6365 74.0396 35.5508 73.8347C34.9684 72.4277 33.8841 71.2845 32.5062 70.6248C31.1284 69.9652 29.5543 69.8356 28.0863 70.261C26.6183 70.6864 25.3601 71.6368 24.5534 72.9295C23.7466 74.2222 23.4483 75.7661 23.7157 77.2644C23.7532 77.4831 23.8033 77.6994 23.8655 77.9123C24.2427 79.194 25.027 80.3196 26.1007 81.1205C27.1745 81.9214 28.48 82.3545 29.8218 82.355C30.4076 82.3563 30.9905 82.2732 31.5524 82.1082C33.1296 81.6495 34.4596 80.587 35.2508 79.1536C36.042 77.7202 36.2298 76.033 35.773 74.4621ZM31.2631 81.1209C29.9479 81.5009 28.5349 81.3462 27.3341 80.6907C26.1332 80.0352 25.2426 78.9325 24.8573 77.6244C24.7969 77.4113 24.7485 77.195 24.7126 76.9765C24.5188 75.742 24.7834 74.4795 25.457 73.425C26.1305 72.3706 27.1668 71.5965 28.3722 71.2474C29.5775 70.8983 30.8694 70.9982 32.0061 71.5283C33.1429 72.0584 34.0467 72.9825 34.5486 74.1278C34.6422 74.3289 34.7199 74.5369 34.7812 74.75C35.1624 76.0592 35.006 77.4655 34.3464 78.66C33.6868 79.8545 32.5779 80.7396 31.2631 81.1209Z" fill="#0B0C0C"/>
<path d="M20.5684 78.8688C20.2378 77.7387 20.2695 76.5341 20.6592 75.4228C21.0489 74.3116 21.7771 73.3489 22.7424 72.6691C21.838 72.6252 20.9362 72.7971 20.1121 73.1703C19.288 73.5436 18.5654 74.1075 18.0046 74.815C17.4437 75.5226 17.0609 76.3532 16.8879 77.2379C16.7149 78.1225 16.7568 79.0355 17.0101 79.9007C17.2633 80.766 17.7207 81.5585 18.344 82.2122C18.9672 82.8659 19.7385 83.3619 20.5933 83.6588C21.4482 83.9558 22.362 84.0451 23.2586 83.9194C24.1551 83.7937 25.0086 83.4565 25.7477 82.936C24.5666 82.8786 23.4329 82.456 22.5045 81.7269C21.5761 80.9979 20.8993 79.9988 20.5684 78.8688Z" fill="#0B0C0C"/>
<path d="M181.16 104.352C181.05 103.959 180.863 103.591 180.61 103.269C180.357 102.948 180.043 102.679 179.685 102.478C179.328 102.278 178.934 102.149 178.527 102.1C178.119 102.051 177.706 102.083 177.311 102.193L143.014 111.741L139.32 112.77H162.516L166.209 111.741L178.995 108.183C179.792 107.96 180.468 107.432 180.874 106.714C181.279 105.995 181.382 105.146 181.16 104.352Z" fill="#CCCCCC"/>
<path d="M156.894 97.2206C156.671 96.427 156.14 95.7542 155.418 95.3501C154.696 94.9461 153.843 94.8439 153.046 95.0661L101.582 109.392C100.863 109.594 100.24 110.046 99.8265 110.666C99.4125 111.285 99.2345 112.031 99.3246 112.77H112.648L116.346 111.742L154.73 101.057C155.528 100.833 156.204 100.303 156.609 99.5842C157.015 98.865 157.118 98.0149 156.894 97.2206Z" fill="#CCCCCC"/>
<path d="M289.384 111.74H39.8662C38.9075 111.741 37.9883 112.121 37.3103 112.796C36.6324 113.471 36.2511 114.385 36.25 115.34V262.401C36.251 263.355 36.6324 264.27 37.3103 264.945C37.9882 265.619 38.9074 265.999 39.8662 266H289.384C290.343 265.999 291.262 265.619 291.94 264.945C292.618 264.27 292.999 263.355 293 262.401V115.34C292.999 114.385 292.618 113.471 291.94 112.796C291.262 112.121 290.343 111.741 289.384 111.74ZM291.967 262.401C291.967 263.082 291.695 263.736 291.21 264.218C290.726 264.7 290.069 264.971 289.384 264.972H39.8662C39.1812 264.971 38.5244 264.7 38.04 264.218C37.5557 263.736 37.2834 263.082 37.2832 262.401V115.34C37.2835 114.658 37.5557 114.004 38.0401 113.522C38.5244 113.04 39.1812 112.769 39.8662 112.769H289.384C290.069 112.769 290.726 113.04 291.21 113.522C291.695 114.004 291.967 114.658 291.967 115.34V262.401Z" fill="#3F3D56"/>
<path d="M64.1445 131.795C62.9184 131.795 61.7199 131.433 60.7004 130.755C59.681 130.077 58.8864 129.114 58.4172 127.986C57.948 126.859 57.8252 125.618 58.0644 124.421C58.3036 123.224 58.894 122.125 59.761 121.262C60.628 120.399 61.7326 119.811 62.9351 119.573C64.1376 119.335 65.3841 119.457 66.5168 119.924C67.6496 120.391 68.6178 121.182 69.299 122.197C69.9801 123.211 70.3437 124.404 70.3437 125.625C70.3418 127.261 69.6881 128.829 68.5259 129.986C67.3638 131.143 65.7881 131.793 64.1445 131.795ZM64.1445 120.483C63.1228 120.483 62.124 120.784 61.2744 121.349C60.4249 121.914 59.7628 122.718 59.3718 123.657C58.9808 124.597 58.8785 125.631 59.0778 126.628C59.2771 127.625 59.7691 128.542 60.4916 129.261C61.2141 129.98 62.1346 130.47 63.1367 130.668C64.1388 130.866 65.1775 130.765 66.1214 130.375C67.0654 129.986 67.8722 129.327 68.4399 128.482C69.0075 127.636 69.3105 126.642 69.3105 125.625C69.309 124.262 68.7642 122.955 67.7957 121.991C66.8272 121.027 65.5141 120.484 64.1445 120.483Z" fill="#0B0C0C"/>
<path d="M54.509 125.625C54.5092 124.448 54.8782 123.3 55.5646 122.342C56.2511 121.383 57.2208 120.662 58.3386 120.278C57.4826 119.984 56.5685 119.898 55.6724 120.027C54.7763 120.156 53.9241 120.496 53.1868 121.019C52.4495 121.542 51.8485 122.233 51.4338 123.034C51.0191 123.835 50.8027 124.724 50.8027 125.625C50.8027 126.526 51.0191 127.414 51.4338 128.215C51.8485 129.017 52.4495 129.707 53.1868 130.231C53.9241 130.754 54.7763 131.094 55.6724 131.223C56.5685 131.352 57.4826 131.266 58.3386 130.972C57.2208 130.588 56.2511 129.866 55.5646 128.908C54.8782 127.949 54.5092 126.802 54.509 125.625Z" fill="#0B0C0C"/>
<path d="M89.2734 198.527C88.0408 198.526 86.859 198.038 85.9873 197.17C85.1157 196.302 84.6254 195.126 84.624 193.899V180.016C84.624 178.788 85.1139 177.611 85.9858 176.744C86.8577 175.876 88.0403 175.388 89.2734 175.388C90.5065 175.388 91.6891 175.876 92.561 176.744C93.433 177.611 93.9228 178.788 93.9228 180.016V193.899C93.9214 195.126 93.4311 196.302 92.5595 197.17C91.6878 198.038 90.5061 198.526 89.2734 198.527Z" fill="#0B0C0C"/>
<path d="M101.672 198.527C100.439 198.526 99.2574 198.038 98.3858 197.17C97.5142 196.302 97.0239 195.126 97.0225 193.899V180.016C97.0225 178.788 97.5123 177.611 98.3842 176.744C99.2562 175.876 100.439 175.388 101.672 175.388C102.905 175.388 104.088 175.876 104.959 176.744C105.831 177.611 106.321 178.788 106.321 180.016V193.899C106.32 195.126 105.83 196.302 104.958 197.17C104.086 198.038 102.905 198.526 101.672 198.527Z" fill="#0B0C0C"/>
<path d="M114.07 198.527C112.838 198.526 111.656 198.038 110.784 197.17C109.913 196.302 109.422 195.126 109.421 193.899V180.016C109.421 178.788 109.911 177.611 110.783 176.744C111.655 175.876 112.837 175.388 114.07 175.388C115.303 175.388 116.486 175.876 117.358 176.744C118.23 177.611 118.72 178.788 118.72 180.016V193.899C118.718 195.126 118.228 196.302 117.356 197.17C116.485 198.038 115.303 198.526 114.07 198.527Z" fill="#0B0C0C"/>
<path d="M133.185 198.527C131.952 198.526 130.77 198.038 129.899 197.17C129.027 196.302 128.537 195.126 128.535 193.899V180.016C128.535 178.788 129.025 177.611 129.897 176.744C130.769 175.876 131.951 175.388 133.185 175.388C134.418 175.388 135.6 175.876 136.472 176.744C137.344 177.611 137.834 178.788 137.834 180.016V193.899C137.833 195.126 137.342 196.302 136.471 197.17C135.599 198.038 134.417 198.526 133.185 198.527Z" fill="#0B0C0C"/>
<path d="M145.583 198.527C144.35 198.526 143.169 198.038 142.297 197.17C141.425 196.302 140.935 195.126 140.934 193.899V180.016C140.934 178.788 141.423 177.611 142.295 176.744C143.167 175.876 144.35 175.388 145.583 175.388C146.816 175.388 147.999 175.876 148.871 176.744C149.743 177.611 150.232 178.788 150.232 180.016V193.899C150.231 195.126 149.741 196.302 148.869 197.17C147.997 198.038 146.816 198.526 145.583 198.527Z" fill="#0B0C0C"/>
<path d="M157.981 198.527C156.749 198.526 155.567 198.038 154.695 197.17C153.824 196.302 153.333 195.126 153.332 193.899V180.016C153.332 178.788 153.822 177.611 154.694 176.744C155.566 175.876 156.748 175.388 157.981 175.388C159.215 175.388 160.397 175.876 161.269 176.744C162.141 177.611 162.631 178.788 162.631 180.016V193.899C162.629 195.126 162.139 196.302 161.267 197.17C160.396 198.038 159.214 198.526 157.981 198.527Z" fill="#0B0C0C"/>
<path d="M177.096 198.527C175.863 198.526 174.681 198.038 173.81 197.17C172.938 196.302 172.448 195.126 172.446 193.899V180.016C172.446 178.788 172.936 177.611 173.808 176.744C174.68 175.876 175.863 175.388 177.096 175.388C178.329 175.388 179.511 175.876 180.383 176.744C181.255 177.611 181.745 178.788 181.745 180.016V193.899C181.744 195.126 181.253 196.302 180.382 197.17C179.51 198.038 178.328 198.526 177.096 198.527Z" fill="#0B0C0C"/>
<path d="M189.494 198.527C188.261 198.526 187.08 198.038 186.208 197.17C185.336 196.302 184.846 195.126 184.845 193.899V180.016C184.845 178.788 185.335 177.611 186.207 176.744C187.078 175.876 188.261 175.388 189.494 175.388C190.727 175.388 191.91 175.876 192.782 176.744C193.654 177.611 194.144 178.788 194.144 180.016V193.899C194.142 195.126 193.652 196.302 192.78 197.17C191.909 198.038 190.727 198.526 189.494 198.527Z" fill="#0B0C0C"/>
<path d="M201.893 198.527C200.66 198.526 199.478 198.038 198.607 197.17C197.735 196.302 197.245 195.126 197.243 193.899V180.016C197.243 178.788 197.733 177.611 198.605 176.744C199.477 175.876 200.659 175.388 201.893 175.388C203.126 175.388 204.308 175.876 205.18 176.744C206.052 177.611 206.542 178.788 206.542 180.016V193.899C206.541 195.126 206.05 196.302 205.179 197.17C204.307 198.038 203.125 198.526 201.893 198.527Z" fill="#0B0C0C"/>
<path d="M221.007 198.527C219.774 198.526 218.592 198.038 217.721 197.17C216.849 196.302 216.359 195.126 216.357 193.899V180.016C216.357 178.788 216.847 177.611 217.719 176.744C218.591 175.876 219.774 175.388 221.007 175.388C222.24 175.388 223.423 175.876 224.294 176.744C225.166 177.611 225.656 178.788 225.656 180.016V193.899C225.655 195.126 225.165 196.302 224.293 197.17C223.421 198.038 222.239 198.526 221.007 198.527Z" fill="#0B0C0C"/>
<path d="M233.405 198.527C232.173 198.526 230.991 198.038 230.119 197.17C229.248 196.302 228.757 195.126 228.756 193.899V180.016C228.756 178.788 229.246 177.611 230.118 176.744C230.99 175.876 232.172 175.388 233.405 175.388C234.638 175.388 235.821 175.876 236.693 176.744C237.565 177.611 238.055 178.788 238.055 180.016V193.899C238.053 195.126 237.563 196.302 236.691 197.17C235.82 198.038 234.638 198.526 233.405 198.527Z" fill="#0B0C0C"/>
<path d="M245.804 198.527C244.571 198.526 243.389 198.038 242.518 197.17C241.646 196.302 241.156 195.126 241.154 193.899V180.016C241.154 178.788 241.644 177.611 242.516 176.744C243.388 175.876 244.571 175.388 245.804 175.388C247.037 175.388 248.219 175.876 249.091 176.744C249.963 177.611 250.453 178.788 250.453 180.016V193.899C250.452 195.126 249.961 196.302 249.09 197.17C248.218 198.038 247.036 198.526 245.804 198.527Z" fill="#0B0C0C"/>
<path d="M120.796 250.033H53.9268C53.0982 250.033 52.3036 249.705 51.7178 249.122C51.1319 248.539 50.8027 247.748 50.8027 246.923C50.8027 246.098 51.1319 245.307 51.7178 244.724C52.3036 244.141 53.0982 243.813 53.9268 243.813H120.796C121.624 243.813 122.419 244.141 123.005 244.724C123.591 245.307 123.92 246.098 123.92 246.923C123.92 247.748 123.591 248.539 123.005 249.122C122.419 249.705 121.624 250.033 120.796 250.033Z" fill="#E6E6E6"/>
<path d="M99.3563 236.663H75.3653C74.5367 236.663 73.7421 236.336 73.1562 235.753C72.5704 235.17 72.2412 234.379 72.2412 233.554C72.2412 232.729 72.5704 231.938 73.1562 231.355C73.7421 230.772 74.5367 230.444 75.3653 230.444H99.3563C100.185 230.444 100.98 230.772 101.565 231.355C102.151 231.938 102.48 232.729 102.48 233.554C102.48 234.379 102.151 235.17 101.565 235.753C100.98 236.336 100.185 236.663 99.3563 236.663Z" fill="#E6E6E6"/>
<path d="M291.78 142.479H37.0967V143.508H291.78V142.479Z" fill="#3F3D56"/>
</g>
<defs>
<clipPath id="clip0_237_778">
<rect width="293" height="266" fill="white"/>
</clipPath>
</defs>
</svg>
