<svg width="271" height="183" viewBox="0 0 271 183" fill="none" xmlns="http://www.w3.org/2000/svg">
<g clip-path="url(#clip0_236_504)">
<path d="M194.355 182.788H171.565V167.453H121.133C120.882 167.453 120.637 167.395 120.42 167.286C120.203 167.177 120.023 167.02 119.898 166.832C119.772 166.643 119.707 166.429 119.707 166.211C119.707 165.993 119.772 165.779 119.898 165.59L136.859 140.011L137.145 140.129L137.095 140.246C138.605 140.723 151.382 144.645 168.843 146.65C175.516 147.422 182.239 147.815 188.971 147.826C205.756 147.826 220.876 145.275 233.911 140.244L234.041 140.194L250.882 165.59C251.007 165.779 251.073 165.993 251.073 166.211C251.073 166.429 251.007 166.643 250.882 166.832C250.757 167.02 250.577 167.177 250.36 167.286C250.143 167.395 249.897 167.453 249.647 167.453H194.355V182.788Z" fill="#F2F2F2"/>
<path d="M187.361 62.5769C179.048 62.5368 170.777 61.5544 162.756 59.6546L162.562 59.605L165.779 55.3065H155.698C155.448 55.3065 155.202 55.2491 154.985 55.1401C154.768 55.0311 154.588 54.8743 154.463 54.6856C154.338 54.4968 154.272 54.2827 154.272 54.0647C154.272 53.8467 154.338 53.6325 154.463 53.4438L168.483 32.3009L168.76 32.4358L168.694 32.5411C173.917 34.7001 179.624 35.8245 185.406 35.8335C190.757 35.8504 196.036 34.7557 200.804 32.6402L200.671 31.8639C184.715 38.9848 169.348 32.0086 168.7 31.707L168.555 31.6399L185.39 6.80542L216.317 53.4438C216.442 53.6325 216.508 53.8467 216.508 54.0647C216.508 54.2827 216.442 54.4968 216.317 54.6856C216.192 54.8743 216.012 55.0311 215.795 55.1401C215.578 55.2491 215.332 55.3065 215.082 55.3065H205.001L208.211 59.5956L208.036 59.6529C201.335 61.8456 194.07 62.5769 187.361 62.5769Z" fill="#F2F2F2"/>
<path d="M188.963 147.021C182.252 147.011 175.549 146.62 168.896 145.85C150.845 143.778 137.649 140.154 137.096 139.977L136.92 139.921L145.489 126.997H137.5C137.249 126.997 137.003 126.94 136.787 126.831C136.57 126.722 136.39 126.565 136.265 126.377C136.139 126.188 136.073 125.974 136.073 125.756C136.073 125.538 136.139 125.324 136.265 125.135L158.174 92.0954H143.854C143.604 92.0954 143.358 92.038 143.141 91.929C142.924 91.82 142.744 91.6633 142.619 91.4745C142.494 91.2857 142.428 91.0716 142.428 90.8536C142.428 90.6356 142.494 90.4214 142.619 90.2327L145.649 85.6633L145.928 85.7948L145.864 85.9041C146.998 86.3803 154.851 89.5304 167.575 91.1557C172.744 91.8069 177.959 92.1302 183.181 92.123C196.805 92.123 210.677 90.0279 224.416 85.8952L224.321 85.6564C200.245 92.8979 180.218 91.9603 167.647 90.3572C154.177 88.6401 146.202 85.2176 145.869 85.0727L145.718 85.0072L162.521 60.1978L162.755 60.4668C170.768 62.3699 179.032 63.3524 187.337 63.3896C195.117 63.3896 202.078 62.4096 208.032 60.4763L207.97 60.3318L208.255 60.2142L228.161 90.2327C228.286 90.4214 228.352 90.6356 228.352 90.8536C228.352 91.0716 228.286 91.2857 228.161 91.4745C228.036 91.6633 227.856 91.8201 227.639 91.9291C227.422 92.0381 227.176 92.0954 226.926 92.0954H212.606L225.899 111.589L225.719 111.644C204.203 118.229 183.71 117.859 170.306 116.389C156.603 114.885 147.262 112.508 145.988 112.095L145.883 112.33C147.155 112.745 156.5 115.678 170.251 117.189C175.674 117.783 181.134 118.081 186.599 118.083C200.421 118.083 213.652 116.172 225.924 112.403L226.048 112.365L234.516 125.135C234.641 125.324 234.707 125.538 234.707 125.756C234.707 125.974 234.641 126.188 234.516 126.377C234.391 126.565 234.211 126.722 233.994 126.831C233.777 126.94 233.531 126.997 233.281 126.997H225.291L233.895 139.421L233.734 139.483C218.795 145.237 202.914 147.021 188.963 147.021Z" fill="#F2F2F2"/>
<path d="M218.942 102.059C222.022 102.059 224.518 99.885 224.518 97.2037C224.518 94.5225 222.022 92.3489 218.942 92.3489C215.862 92.3489 213.366 94.5225 213.366 97.2037C213.366 99.885 215.862 102.059 218.942 102.059Z" fill="#E6E6E6"/>
<path d="M215.259 97.0495L213.814 95.102L214.107 94.9373L215.349 96.6123L217.899 94.9632L220.178 96.9195L222.42 95.2226L224.474 97.2796L224.212 97.4788L222.385 95.6506L220.164 97.3329L217.867 95.3617L215.259 97.0495Z" fill="#CCCCCC"/>
<path d="M223.687 99.8663L221.846 98.0234L219.624 99.7065L217.328 97.7364L214.723 99.4214L213.292 97.4914L213.547 97.3481L214.802 99.0409L217.355 97.389L219.636 99.3464L221.876 97.6503L223.916 99.6927L223.687 99.8663Z" fill="#CCCCCC"/>
<path d="M219.261 88.8586L218.97 92.491L219.318 92.5121L219.608 88.8797L219.261 88.8586Z" fill="#CCCCCC"/>
<path d="M144.537 104.174C147.617 104.174 150.113 102 150.113 99.319C150.113 96.6377 147.617 94.4641 144.537 94.4641C141.458 94.4641 138.961 96.6377 138.961 99.319C138.961 102 141.458 104.174 144.537 104.174Z" fill="#E6E6E6"/>
<path d="M140.853 99.1647L139.41 97.2172L139.703 97.0525L140.944 98.7278L143.494 97.0784L145.774 99.0347L148.015 97.3378L150.07 99.3948L149.807 99.5941L147.981 97.7658L145.759 99.4481L143.462 97.4769L140.853 99.1647Z" fill="#CCCCCC"/>
<path d="M149.282 101.982L147.442 100.139L145.218 101.822L142.923 99.8517L140.318 101.537L138.887 99.6066L139.143 99.4634L140.397 101.156L142.951 99.5042L145.232 101.462L147.471 99.7656L149.512 101.808L149.282 101.982Z" fill="#CCCCCC"/>
<path d="M144.855 90.9741L144.564 94.6064L144.912 94.6275L145.203 90.9952L144.855 90.9741Z" fill="#CCCCCC"/>
<path d="M179.766 51.5561C182.845 51.5561 185.342 49.3825 185.342 46.7013C185.342 44.02 182.845 41.8464 179.766 41.8464C176.686 41.8464 174.189 44.02 174.189 46.7013C174.189 49.3825 176.686 51.5561 179.766 51.5561Z" fill="#E6E6E6"/>
<path d="M176.082 46.547L174.638 44.5993L174.931 44.4348L176.173 46.1099L178.723 44.4608L181.002 46.417L183.243 44.7199L185.298 46.7772L185.035 46.9761L183.209 45.1479L180.988 46.8302L178.691 44.859L176.082 46.547Z" fill="#CCCCCC"/>
<path d="M184.511 49.3641L182.67 47.5213L180.447 49.2041L178.151 47.2343L175.546 48.9193L174.116 46.9892L174.371 46.8457L175.625 48.5384L178.179 46.8865L180.46 48.8442L182.7 47.1482L184.74 49.1905L184.511 49.3641Z" fill="#CCCCCC"/>
<path d="M180.084 38.3562L179.793 41.9885L180.141 42.0096L180.432 38.3773L180.084 38.3562Z" fill="#CCCCCC"/>
<path d="M213.779 138.283C216.859 138.283 219.356 136.109 219.356 133.428C219.356 130.747 216.859 128.573 213.779 128.573C210.7 128.573 208.203 130.747 208.203 133.428C208.203 136.109 210.7 138.283 213.779 138.283Z" fill="#E6E6E6"/>
<path d="M210.096 133.274L208.652 131.326L208.945 131.161L210.187 132.837L212.736 131.187L215.016 133.144L217.257 131.447L219.312 133.504L219.049 133.703L217.222 131.875L215.001 133.557L212.704 131.586L210.096 133.274Z" fill="#CCCCCC"/>
<path d="M218.524 136.091L216.683 134.248L214.46 135.931L212.165 133.961L209.56 135.646L208.129 133.716L208.384 133.573L209.639 135.265L212.193 133.613L214.473 135.571L216.713 133.875L218.754 135.917L218.524 136.091Z" fill="#CCCCCC"/>
<path d="M214.098 125.083L213.807 128.715L214.155 128.736L214.445 125.104L214.098 125.083Z" fill="#CCCCCC"/>
<path d="M150.915 156.263C153.994 156.263 156.491 154.089 156.491 151.408C156.491 148.727 153.994 146.553 150.915 146.553C147.835 146.553 145.339 148.727 145.339 151.408C145.339 154.089 147.835 156.263 150.915 156.263Z" fill="#E6E6E6"/>
<path d="M147.231 151.254L145.787 149.306L146.08 149.141L147.322 150.817L149.871 149.167L152.151 151.124L154.392 149.427L156.447 151.484L156.184 151.683L154.358 149.855L152.136 151.537L149.839 149.566L147.231 151.254Z" fill="#CCCCCC"/>
<path d="M155.66 154.07L153.819 152.228L151.596 153.911L149.3 151.941L146.696 153.626L145.265 151.695L145.52 151.552L146.775 153.245L149.328 151.593L151.609 153.55L153.849 151.854L155.889 153.897L155.66 154.07Z" fill="#CCCCCC"/>
<path d="M151.233 143.063L150.942 146.696L151.29 146.717L151.58 143.084L151.233 143.063Z" fill="#CCCCCC"/>
<path d="M195.254 79.8481C198.334 79.8481 200.83 77.6745 200.83 74.9933C200.83 72.312 198.334 70.1384 195.254 70.1384C192.174 70.1384 189.678 72.312 189.678 74.9933C189.678 77.6745 192.174 79.8481 195.254 79.8481Z" fill="#E6E6E6"/>
<path d="M191.57 74.839L190.126 72.8913L190.419 72.7268L191.661 74.4019L194.211 72.7525L196.49 74.709L198.731 73.0119L200.787 75.0692L200.523 75.2681L198.697 73.4399L196.476 75.1221L194.179 73.151L191.57 74.839Z" fill="#CCCCCC"/>
<path d="M199.999 77.6561L198.158 75.813L195.935 77.496L193.64 75.526L191.035 77.2113L189.604 75.2812L189.859 75.1377L191.114 76.8304L193.667 75.1785L195.948 77.1362L198.188 75.4399L200.228 77.4825L199.999 77.6561Z" fill="#CCCCCC"/>
<path d="M195.572 66.6479L195.282 70.2803L195.629 70.3014L195.92 66.669L195.572 66.6479Z" fill="#CCCCCC"/>
<path d="M179.462 127.706C182.541 127.706 185.038 125.533 185.038 122.851C185.038 120.17 182.541 117.997 179.462 117.997C176.382 117.997 173.886 120.17 173.886 122.851C173.886 125.533 176.382 127.706 179.462 127.706Z" fill="#E6E6E6"/>
<path d="M175.778 122.697L174.334 120.75L174.627 120.585L175.869 122.26L178.419 120.611L180.698 122.567L182.94 120.87L184.994 122.927L184.732 123.127L182.905 121.298L180.684 122.981L178.387 121.009L175.778 122.697Z" fill="#CCCCCC"/>
<path d="M184.207 125.514L182.366 123.671L180.143 125.354L177.847 123.384L175.243 125.07L173.812 123.139L174.067 122.996L175.322 124.689L177.875 123.037L180.156 124.994L182.396 123.298L184.436 125.341L184.207 125.514Z" fill="#CCCCCC"/>
<path d="M179.78 114.506L179.49 118.139L179.837 118.16L180.128 114.527L179.78 114.506Z" fill="#CCCCCC"/>
<path d="M188.597 11.0699C188.425 11.0693 188.258 11.02 188.122 10.9293L185.301 9.08695C185.221 9.03435 185.124 9.00529 185.023 9.00396C184.923 9.00263 184.825 9.02909 184.743 9.07953L181.858 10.8452C181.722 10.929 181.558 10.9729 181.39 10.9707C181.223 10.9684 181.061 10.9201 180.927 10.8327C180.793 10.7452 180.695 10.6232 180.645 10.4839C180.596 10.3447 180.599 10.1955 180.653 10.0577L181.794 7.15307C181.827 7.07037 181.828 6.98077 181.799 6.89717C181.769 6.81358 181.71 6.74031 181.63 6.68792L178.81 4.84554C178.676 4.7581 178.577 4.636 178.528 4.49676C178.479 4.35751 178.481 4.20826 178.535 4.07041C178.589 3.93255 178.692 3.81316 178.829 3.72935C178.966 3.64553 179.13 3.6016 179.297 3.60386L182.823 3.65129C182.923 3.6528 183.022 3.6265 183.104 3.57621C183.186 3.52591 183.247 3.4542 183.28 3.37142L184.421 0.466834C184.472 0.327276 184.574 0.206103 184.712 0.121838C184.849 0.0375727 185.015 -0.00514898 185.183 0.000204028C185.351 0.000883196 185.514 0.0486156 185.648 0.136329C185.782 0.224043 185.88 0.34707 185.928 0.487177L186.966 3.421C186.995 3.50462 187.054 3.57797 187.135 3.63045C187.215 3.68293 187.312 3.71183 187.413 3.713L190.938 3.76043C191.105 3.76269 191.268 3.811 191.402 3.89846C191.535 3.98591 191.634 4.10801 191.683 4.24726C191.732 4.3865 191.73 4.53575 191.676 4.6736C191.621 4.81145 191.519 4.93084 191.382 5.01465L188.498 6.78024C188.415 6.83043 188.354 6.90206 188.321 6.9848C188.289 7.06754 188.287 7.15713 188.317 7.24067L189.354 10.1746C189.406 10.3138 189.404 10.4636 189.35 10.6018C189.295 10.74 189.191 10.8593 189.053 10.942C188.92 11.0246 188.76 11.0693 188.597 11.0699Z" fill="#CCCCCC"/>
<path d="M93.5828 173.065H88.3529C87.9628 173.065 87.5769 172.995 87.2189 172.86C86.861 172.725 86.5385 172.527 86.2713 172.28C86.0028 172.032 85.7963 171.739 85.6646 171.418C85.533 171.097 85.4791 170.756 85.5064 170.417C85.5681 169.778 85.9057 169.184 86.4511 168.753C86.9966 168.323 87.7093 168.089 88.4453 168.098H89.6208V162.579H96.5939V170.444C96.593 171.139 96.2754 171.805 95.7109 172.297C95.1464 172.788 94.3811 173.065 93.5828 173.065Z" fill="#CCCCCC"/>
<path d="M87.8512 148.81L81.5436 148.259C80.6242 148.179 79.7792 147.783 79.1945 147.16C78.6097 146.537 78.333 145.737 78.4251 144.937C78.5172 144.136 78.9706 143.4 79.6857 142.89C80.4008 142.381 81.319 142.139 82.2386 142.218L88.5462 142.769C89.2324 142.828 89.8827 143.064 90.4151 143.446C90.9474 143.827 91.3377 144.338 91.5368 144.913C91.7359 145.488 91.7347 146.101 91.5334 146.675C91.3321 147.249 90.9398 147.759 90.406 148.139C90.2489 148.251 90.081 148.351 89.904 148.438C89.2804 148.743 88.5632 148.873 87.8512 148.81Z" fill="#CCCCCC"/>
<path d="M71.9568 144.372C72.0003 143.994 72.1291 143.626 72.3358 143.291C72.5425 142.956 72.823 142.659 73.1613 142.418C73.4996 142.177 73.8891 141.997 74.3075 141.887C74.726 141.777 75.1652 141.74 75.6 141.778L75.9624 141.758L75.403 141.286C75.3283 141.223 75.2685 141.148 75.2272 141.064C75.1859 140.981 75.1638 140.892 75.1621 140.801C75.1605 140.711 75.1793 140.621 75.2176 140.537C75.2559 140.452 75.3129 140.375 75.3853 140.31C75.4577 140.245 75.5441 140.193 75.6396 140.157C75.7351 140.121 75.8378 140.102 75.9418 140.101C76.0459 140.099 76.1492 140.116 76.246 140.149C76.3427 140.182 76.431 140.232 76.5057 140.295L78.0976 141.638L80.506 141.503C80.6773 141.493 80.849 141.514 81.0107 141.564C81.1725 141.613 81.3209 141.691 81.4471 141.793C81.5732 141.894 81.6745 142.016 81.7446 142.153C81.8148 142.289 81.8525 142.436 81.8553 142.586L81.9501 147.548C81.9533 147.715 81.9127 147.881 81.8312 148.033C81.7497 148.185 81.6296 148.319 81.48 148.424C81.3303 148.53 81.1551 148.604 80.9675 148.642C80.7799 148.679 80.5849 148.679 80.3974 148.642L74.9364 147.544C74.0582 147.468 73.2508 147.091 72.6921 146.496C72.1333 145.901 71.8688 145.137 71.9568 144.372Z" fill="#3F3D56"/>
<path d="M97.2278 166.58C104.492 166.58 110.382 160.403 110.382 152.782C110.382 145.162 104.492 138.984 97.2278 138.984C89.9631 138.984 84.074 145.162 84.074 152.782C84.074 160.403 89.9631 166.58 97.2278 166.58Z" fill="#E6E6E6"/>
<path d="M89.7792 152.782C90.3044 152.782 90.7301 152.152 90.7301 151.375C90.7301 150.598 90.3044 149.968 89.7792 149.968C89.2541 149.968 88.8284 150.598 88.8284 151.375C88.8284 152.152 89.2541 152.782 89.7792 152.782Z" fill="#3F3D56"/>
<path d="M89.4624 156.701C89.9875 156.701 90.4132 156.071 90.4132 155.294C90.4132 154.516 89.9875 153.886 89.4624 153.886C88.9372 153.886 88.5115 154.516 88.5115 155.294C88.5115 156.071 88.9372 156.701 89.4624 156.701Z" fill="#3F3D56"/>
<path d="M97.0694 142.02C102.671 142.02 107.212 138.066 107.212 133.189C107.212 128.312 102.671 124.358 97.0694 124.358C91.4678 124.358 86.9268 128.312 86.9268 133.189C86.9268 138.066 91.4678 142.02 97.0694 142.02Z" fill="#E6E6E6"/>
<path d="M105.627 130.568H88.8283C88.2821 130.567 87.7584 130.378 87.3722 130.042C86.9859 129.705 86.7687 129.249 86.7681 128.774V127.394C86.7681 122.746 92.1724 118.425 98.0201 118.425C103.868 118.425 107.37 122.746 107.37 127.394V129.05C107.37 129.452 107.186 129.838 106.859 130.122C106.532 130.407 106.089 130.567 105.627 130.568Z" fill="#3F3D56"/>
<path d="M104.011 146.534L103.566 152.04C103.502 152.843 103.073 153.59 102.375 154.118C101.677 154.646 100.766 154.911 99.8437 154.855C99.387 154.827 98.9411 154.721 98.5314 154.543C98.1217 154.365 97.7563 154.118 97.4561 153.817C96.8497 153.209 96.5455 152.417 96.6104 151.613L97.0554 146.108C97.1038 145.509 97.3551 144.936 97.7775 144.461C98.2 143.987 98.7745 143.632 99.4286 143.442C100.083 143.252 100.787 143.234 101.452 143.393C102.117 143.551 102.714 143.877 103.166 144.33C103.299 144.464 103.419 144.607 103.524 144.758C103.893 145.292 104.064 145.912 104.011 146.534Z" fill="#CCCCCC"/>
<path d="M99.3873 160.498C98.9514 160.471 98.5257 160.37 98.1346 160.2C97.7436 160.03 97.3948 159.795 97.1083 159.507C96.8217 159.22 96.6029 158.886 96.4644 158.526C96.3259 158.165 96.2704 157.784 96.3011 157.404L96.267 157.089L95.7418 157.59C95.6717 157.657 95.5871 157.712 95.4928 157.75C95.3985 157.789 95.2964 157.811 95.1923 157.815C95.0882 157.819 94.9841 157.806 94.8861 157.775C94.7881 157.744 94.6981 157.697 94.6211 157.636C94.5441 157.574 94.4818 157.501 94.4377 157.418C94.3935 157.336 94.3684 157.247 94.3638 157.157C94.3592 157.066 94.3752 156.975 94.4108 156.89C94.4465 156.805 94.5011 156.727 94.5716 156.66L96.0661 155.235L95.8395 153.143C95.8234 152.994 95.8422 152.844 95.8946 152.702C95.9471 152.559 96.0321 152.428 96.1447 152.315C96.2572 152.202 96.3949 152.111 96.5493 152.045C96.7038 151.98 96.8718 151.943 97.0432 151.936L102.737 151.707C102.93 151.699 103.121 151.73 103.298 151.796C103.475 151.863 103.632 151.963 103.757 152.09C103.883 152.217 103.973 152.368 104.022 152.53C104.071 152.692 104.077 152.862 104.039 153.026L102.941 157.811C102.879 158.577 102.47 159.291 101.803 159.795C101.137 160.299 100.268 160.552 99.3873 160.498Z" fill="#3F3D56"/>
<path d="M98.3372 120.771C99.7376 120.771 100.873 119.783 100.873 118.563C100.873 117.344 99.7376 116.356 98.3372 116.356C96.9368 116.356 95.8015 117.344 95.8015 118.563C95.8015 119.783 96.9368 120.771 98.3372 120.771Z" fill="#0F170F"/>
<path d="M94.6921 133.327C95.2172 133.327 95.643 132.956 95.643 132.499C95.643 132.042 95.2172 131.671 94.6921 131.671C94.1669 131.671 93.7412 132.042 93.7412 132.499C93.7412 132.956 94.1669 133.327 94.6921 133.327Z" fill="#3F3D56"/>
<path d="M89.3039 133.327C89.8291 133.327 90.2548 132.956 90.2548 132.499C90.2548 132.042 89.8291 131.671 89.3039 131.671C88.7787 131.671 88.353 132.042 88.353 132.499C88.353 132.956 88.7787 133.327 89.3039 133.327Z" fill="#3F3D56"/>
<path d="M105.152 173.065H99.922C99.1237 173.065 98.3583 172.788 97.7938 172.297C97.2293 171.805 96.9118 171.139 96.9109 170.444V162.579H103.884V168.098H105.06C105.796 168.089 106.508 168.323 107.054 168.753C107.599 169.184 107.937 169.778 107.998 170.417C108.026 170.756 107.972 171.097 107.84 171.418C107.708 171.739 107.502 172.032 107.234 172.28C106.966 172.527 106.644 172.725 106.286 172.86C105.928 172.995 105.542 173.065 105.152 173.065Z" fill="#CCCCCC"/>
<path d="M58.9963 151.302L54.8033 147.163C54.1917 146.559 53.8806 145.768 53.9385 144.965C53.9964 144.161 54.4186 143.411 55.1121 142.878C55.8056 142.346 56.7137 142.075 57.6366 142.125C58.5595 142.176 59.4216 142.543 60.0332 143.147L64.2262 147.287C64.6823 147.737 64.9748 148.295 65.0667 148.89C65.1585 149.485 65.0457 150.09 64.7424 150.629C64.4392 151.169 63.9591 151.617 63.3628 151.919C62.7666 152.221 62.081 152.362 61.3928 152.324C61.1901 152.313 60.9889 152.287 60.7914 152.246C60.0954 152.1 59.4682 151.771 58.9963 151.302Z" fill="#CCCCCC"/>
<path d="M50.8146 138.635C51.1424 138.384 51.5239 138.191 51.9373 138.067C52.3508 137.944 52.7881 137.893 53.2243 137.917C53.6605 137.941 54.087 138.039 54.4795 138.206C54.8721 138.374 55.2229 138.607 55.5119 138.892L55.7934 139.092L55.7522 138.415C55.7467 138.324 55.7617 138.234 55.7964 138.148C55.831 138.063 55.8847 137.984 55.9543 137.917C56.0238 137.849 56.108 137.795 56.2019 137.756C56.2958 137.717 56.3975 137.694 56.5015 137.689C56.6054 137.684 56.7093 137.697 56.8074 137.728C56.9055 137.758 56.9959 137.805 57.0732 137.865C57.1506 137.926 57.2135 137.999 57.2583 138.081C57.3032 138.162 57.3291 138.251 57.3346 138.342L57.452 140.269L59.3229 141.596C59.4559 141.69 59.5655 141.807 59.6451 141.94C59.7247 142.072 59.7726 142.217 59.7859 142.366C59.7993 142.515 59.7777 142.665 59.7226 142.806C59.6675 142.948 59.58 143.078 59.4653 143.189L55.6574 146.882C55.5288 147.007 55.3692 147.104 55.1909 147.167C55.0125 147.23 54.82 147.257 54.6279 147.246C54.4358 147.235 54.2493 147.185 54.0824 147.102C53.9154 147.018 53.7726 146.903 53.6645 146.764L50.5197 142.725C49.9359 142.149 49.639 141.394 49.6943 140.627C49.7496 139.86 50.1526 139.144 50.8146 138.635Z" fill="#0F170F"/>
<path d="M61.8362 169.428C63.773 168.541 64.0887 165.745 62.5411 163.182C60.9936 160.618 58.169 159.259 56.2321 160.145C54.2952 161.032 53.9796 163.828 55.5271 166.392C57.0747 168.955 59.8993 170.314 61.8362 169.428Z" fill="#CCCCCC"/>
<path d="M69.8108 170.306C77.0754 170.306 82.9646 164.128 82.9646 156.508C82.9646 148.887 77.0754 142.71 69.8108 142.71C62.5461 142.71 56.657 148.887 56.657 156.508C56.657 164.128 62.5461 170.306 69.8108 170.306Z" fill="#E6E6E6"/>
<path d="M66.3655 170.354C68.3432 169.538 68.7928 166.756 67.3696 164.139C65.9465 161.521 63.1895 160.06 61.2118 160.876C59.2341 161.691 58.7846 164.473 60.2077 167.091C61.6308 169.708 64.3878 171.169 66.3655 170.354Z" fill="#CCCCCC"/>
<path d="M58.2419 155.956C58.767 155.956 59.1928 155.326 59.1928 154.549C59.1928 153.771 58.767 153.141 58.2419 153.141C57.7167 153.141 57.291 153.771 57.291 154.549C57.291 155.326 57.7167 155.956 58.2419 155.956Z" fill="#3F3D56"/>
<path d="M60.11 151.18C60.3457 150.43 60.1262 149.724 59.6197 149.604C59.1131 149.483 58.5114 149.993 58.2757 150.742C58.04 151.492 58.2595 152.198 58.766 152.318C59.2725 152.439 59.8742 151.929 60.11 151.18Z" fill="#3F3D56"/>
<path d="M58.2419 159.598C58.767 159.598 59.1928 158.968 59.1928 158.191C59.1928 157.414 58.767 156.784 58.2419 156.784C57.7167 156.784 57.291 157.414 57.291 158.191C57.291 158.968 57.7167 159.598 58.2419 159.598Z" fill="#3F3D56"/>
<path d="M69.6525 145.745C75.2541 145.745 79.7951 141.792 79.7951 136.915C79.7951 132.038 75.2541 128.084 69.6525 128.084C64.0508 128.084 59.5098 132.038 59.5098 136.915C59.5098 141.792 64.0508 145.745 69.6525 145.745Z" fill="#E6E6E6"/>
<path d="M78.2104 134.293H61.4116C60.8653 134.293 60.3417 134.103 59.9554 133.767C59.5692 133.431 59.3519 132.975 59.3513 132.499V131.12C59.3513 126.472 63.8048 117.184 69.6525 117.184C75.5002 117.184 79.9537 126.472 79.9537 131.12V132.775C79.9531 133.178 79.7693 133.564 79.4425 133.848C79.1157 134.133 78.6726 134.293 78.2104 134.293Z" fill="#0F170F"/>
<path d="M75.7646 153.922C75.5615 153.922 75.3588 153.907 75.1587 153.876C74.4794 153.773 73.8504 153.497 73.3513 153.083C72.8521 152.668 72.5053 152.135 72.3547 151.549C72.2041 150.963 72.2564 150.351 72.505 149.791C72.7536 149.231 73.1874 148.748 73.7514 148.402L78.9368 145.228C79.6932 144.764 80.6299 144.582 81.5409 144.72C82.4519 144.858 83.2625 145.306 83.7944 145.964C84.3263 146.623 84.536 147.439 84.3773 148.232C84.2186 149.025 83.7044 149.731 82.948 150.194L77.7627 153.369C77.1784 153.729 76.4803 153.922 75.7646 153.922Z" fill="#CCCCCC"/>
<path d="M89.1091 142.71C88.8577 142.399 88.5383 142.134 88.1692 141.93C87.8001 141.726 87.3886 141.588 86.958 141.523C86.5274 141.457 86.0863 141.466 85.6598 141.549C85.2333 141.633 84.8298 141.788 84.4723 142.007L84.1452 142.144L84.3665 141.494C84.3963 141.407 84.4061 141.316 84.3954 141.226C84.3846 141.135 84.3536 141.048 84.304 140.968C84.2544 140.888 84.1872 140.818 84.1063 140.761C84.0253 140.704 83.9323 140.661 83.8324 140.635C83.7325 140.609 83.6278 140.601 83.5242 140.61C83.4206 140.62 83.3201 140.647 83.2286 140.691C83.1371 140.734 83.0563 140.793 82.9908 140.863C82.9254 140.934 82.8765 141.015 82.8471 141.102L82.2172 142.952L80.0426 143.863C79.888 143.928 79.7501 144.02 79.6373 144.132C79.5245 144.245 79.4391 144.376 79.3863 144.518C79.3334 144.66 79.3143 144.81 79.33 144.959C79.3458 145.108 79.396 145.252 79.4777 145.384L82.1926 149.748C82.2843 149.895 82.4133 150.022 82.5699 150.12C82.7265 150.217 82.9065 150.282 83.0964 150.31C83.2862 150.338 83.4808 150.328 83.6655 150.281C83.8501 150.233 84.02 150.15 84.1622 150.037L88.3014 146.747C89.0233 146.305 89.514 145.631 89.6655 144.874C89.817 144.117 89.6168 143.339 89.1091 142.71Z" fill="#0F170F"/>
<path d="M69.0186 119.253C70.419 119.253 71.5543 118.265 71.5543 117.046C71.5543 115.826 70.419 114.838 69.0186 114.838C67.6182 114.838 66.4829 115.826 66.4829 117.046C66.4829 118.265 67.6182 119.253 69.0186 119.253Z" fill="#0F170F"/>
<path d="M64.2641 136.915C64.7893 136.915 65.215 136.544 65.215 136.087C65.215 135.629 64.7893 135.259 64.2641 135.259C63.739 135.259 63.3132 135.629 63.3132 136.087C63.3132 136.544 63.739 136.915 64.2641 136.915Z" fill="#3F3D56"/>
<path d="M60.7775 136.915C61.3027 136.915 61.7284 136.544 61.7284 136.087C61.7284 135.629 61.3027 135.259 60.7775 135.259C60.2524 135.259 59.8267 135.629 59.8267 136.087C59.8267 136.544 60.2524 136.915 60.7775 136.915Z" fill="#3F3D56"/>
<path d="M92.5818 135.792C92.5727 135.792 92.5637 135.792 92.5545 135.792L83.8084 135.458C83.7077 135.464 83.608 135.439 83.5266 135.387C83.4451 135.335 83.3871 135.26 83.3626 135.175C83.338 135.017 83.4817 134.878 83.712 134.836L92.0745 133.338C92.2048 133.314 92.3405 133.329 92.4603 133.38C92.5122 133.4 92.5581 133.43 92.5943 133.469C92.6304 133.507 92.6559 133.552 92.6688 133.6L93.0524 135.431C93.0611 135.48 93.0544 135.53 93.033 135.575C93.0117 135.621 92.9765 135.66 92.9313 135.69C92.8318 135.758 92.7083 135.794 92.5818 135.792Z" fill="#FF6584"/>
<path d="M92.8342 136.671C91.5236 136.671 90.2947 135.945 90.2947 136.553C90.2947 137.161 91.5236 138.874 92.8342 138.874C94.1449 138.874 95.3261 137.673 95.3261 137.065C95.3261 136.456 94.1449 136.671 92.8342 136.671Z" fill="white"/>
<path d="M63.6741 140.535C62.3634 140.535 61.1345 139.808 61.1345 140.417C61.1345 141.025 62.3634 142.738 63.6741 142.738C64.9848 142.738 66.1659 141.536 66.1659 140.928C66.1659 140.32 64.9848 140.535 63.6741 140.535Z" fill="white"/>
<path d="M63.0121 139.518C63.0043 139.518 62.9965 139.517 62.9887 139.517L55.4584 139.203C55.3683 139.205 55.2801 139.179 55.2097 139.13C55.1394 139.081 55.0914 139.012 55.0745 138.935C55.0685 138.858 55.0963 138.783 55.1522 138.723C55.2081 138.664 55.2879 138.625 55.3754 138.615L62.5753 137.201C62.6879 137.179 62.8059 137.193 62.9075 137.24C62.9535 137.261 62.9936 137.29 63.0247 137.326C63.0557 137.362 63.0771 137.404 63.087 137.448L63.4173 139.177C63.4252 139.222 63.4197 139.268 63.4015 139.311C63.3832 139.354 63.3528 139.391 63.313 139.421C63.2299 139.484 63.1227 139.519 63.0121 139.518Z" fill="#FF6584"/>
<path d="M151.745 182.724H25.7535C22.182 182.721 18.7581 181.484 16.2327 179.285C13.7073 177.086 12.2868 174.105 12.2827 170.996C12.2827 170.63 12.4497 170.279 12.7469 170.02C13.0441 169.761 13.4472 169.616 13.8675 169.616C14.2878 169.616 14.6909 169.761 14.9881 170.02C15.2853 170.279 15.4523 170.63 15.4523 170.996C15.4554 173.374 16.5417 175.653 18.4729 177.335C20.404 179.016 23.0224 179.962 25.7535 179.964H151.745C152.165 179.964 152.568 180.11 152.865 180.369C153.163 180.627 153.329 180.978 153.329 181.344C153.329 181.71 153.163 182.061 152.865 182.32C152.568 182.579 152.165 182.724 151.745 182.724Z" fill="#3F3D56"/>
<path d="M139.225 170.03H33.9944C33.3639 170.03 32.7593 170.248 32.3134 170.636C31.8676 171.024 31.6172 171.551 31.6172 172.099C31.6172 172.648 31.8676 173.175 32.3134 173.563C32.7593 173.951 33.3639 174.169 33.9944 174.169H44.2955V179.136C44.2955 179.795 44.5961 180.427 45.1311 180.893C45.666 181.358 46.3916 181.62 47.1482 181.62C47.9047 181.62 48.6303 181.358 49.1653 180.893C49.7003 180.427 50.0008 179.795 50.0008 179.136V174.169H83.2815V179.136C83.2815 179.795 83.5821 180.427 84.117 180.893C84.652 181.358 85.3776 181.62 86.1341 181.62C86.8907 181.62 87.6163 181.358 88.1513 180.893C88.6862 180.427 88.9868 179.795 88.9868 179.136V174.169H122.267V179.136C122.267 179.795 122.568 180.427 123.103 180.893C123.638 181.358 124.364 181.62 125.12 181.62C125.877 181.62 126.602 181.358 127.137 180.893C127.672 180.427 127.973 179.795 127.973 179.136V174.169H139.225C139.855 174.169 140.46 173.951 140.906 173.563C141.352 173.175 141.602 172.648 141.602 172.099C141.602 171.551 141.352 171.024 140.906 170.636C140.46 170.248 139.855 170.03 139.225 170.03Z" fill="#3F3D56"/>
<path d="M270.683 183H0.316959C0.232896 183 0.152276 182.971 0.0928349 182.919C0.0333936 182.867 0 182.797 0 182.724C0 182.651 0.0333936 182.581 0.0928349 182.529C0.152276 182.477 0.232896 182.448 0.316959 182.448H270.683C270.767 182.448 270.848 182.477 270.907 182.529C270.967 182.581 271 182.651 271 182.724C271 182.797 270.967 182.867 270.907 182.919C270.848 182.971 270.767 183 270.683 183Z" fill="#CCCCCC"/>
</g>
<defs>
<clipPath id="clip0_236_504">
<rect width="271" height="183" fill="white"/>
</clipPath>
</defs>
</svg>
